
<svg width="280" height="100" viewBox="0 0 280 100" fill="none" xmlns="http://www.w3.org/2000/svg">
    <path d="M103.135 83.6293V46.3632H110.219V77.9829H119.561V46.3632H126.646V77.9829H128.903V91.1578H122.32V83.6293H103.135Z" fill="#008549"/>
    <path d="M132.853 83.6293V46.3632H139.436V60.2909C139.436 66.3765 139.122 70.7681 138.558 73.4658H138.621L148.966 46.3632H156.614V83.6293H150.031V69.5133C150.031 63.5533 150.345 59.2871 150.909 56.5894H150.846L140.502 83.6293H132.853Z" fill="#008549"/>
    <path d="M160.752 64.8708C160.752 62.5495 161.129 60.4164 161.818 58.5343C162.508 56.6521 163.448 55.1464 164.64 54.0171C165.831 52.8879 167.085 52.0095 168.527 51.4449C169.969 50.8803 171.411 50.5666 172.978 50.5666H175.047V46.3632H182.132V50.5666H184.201C185.768 50.5666 187.273 50.8803 188.652 51.4449C190.094 52.0095 191.348 52.8879 192.539 54.0171C193.73 55.1464 194.608 56.6521 195.298 58.5343C195.987 60.4164 196.364 62.5495 196.364 64.8708C196.364 67.3175 196.05 69.4506 195.361 71.27C194.671 73.1521 193.73 74.5951 192.602 75.7244C191.411 76.7909 190.157 77.6065 188.715 78.1711C187.335 78.7358 185.831 78.9867 184.263 78.9867H182.194V83.5666H175.11V78.9867H173.041C171.473 78.9867 169.969 78.7358 168.589 78.1711C167.21 77.6065 165.893 76.7909 164.702 75.7244C163.511 74.6578 162.571 73.1521 161.881 71.27C161.066 69.4506 160.752 67.3175 160.752 64.8708ZM167.962 64.8708C167.962 67.6312 168.401 69.7643 169.342 71.27C170.282 72.7757 171.599 73.5286 173.292 73.5286H174.984V56.0875H173.292C171.599 56.0875 170.345 56.9031 169.342 58.5343C168.464 60.1027 167.962 62.2358 167.962 64.8708ZM182.069 73.5286H183.699C185.392 73.5286 186.771 72.7757 187.649 71.27C188.589 69.7643 189.028 67.6312 189.028 64.8708C189.028 62.2358 188.527 60.1027 187.586 58.4715C186.646 56.8403 185.329 56.0248 183.699 56.0248H182.069V73.5286Z" fill="#008549"/>
    <path d="M200.627 83.6293V46.3632H213.981C215.925 46.3632 217.68 46.8651 219.185 47.8061C220.69 48.8099 221.818 50.1274 222.633 51.7586C223.386 53.3898 223.824 55.2092 223.824 57.2168C223.824 59.2871 223.448 61.1692 222.633 62.8632C221.818 64.5571 220.69 65.9373 219.185 66.9411C217.68 67.9449 215.925 68.4468 213.981 68.4468H207.774V83.6293H200.627ZM207.712 62.9259H211.285C213.041 62.9259 214.357 62.424 215.235 61.4829C216.113 60.5419 216.552 59.1616 216.552 57.3422C216.552 55.5856 216.113 54.2054 215.235 53.2643C214.357 52.3232 213.041 51.8841 211.285 51.8841H207.712V62.9259Z" fill="#008549"/>
    <path d="M228.464 72.2738V70.4544H235.549V73.0266C235.549 74.9715 235.862 76.4145 236.489 77.3555C237.116 78.2966 238.244 78.7358 239.812 78.7358C241.129 78.7358 242.194 78.2339 242.884 77.1673C243.636 76.1008 243.95 74.6578 243.95 72.7757V66.251H238.056V60.6046H243.95V57.5304C243.95 55.3974 243.636 53.8289 243.072 52.7624C242.445 51.6958 241.379 51.1939 239.812 51.1939C238.244 51.1939 237.116 51.7586 236.489 52.8251C235.862 53.8917 235.549 55.4601 235.549 57.5304H228.464V55.962C228.464 52.8251 229.467 50.2529 231.411 48.3707C233.354 46.4886 236.176 45.5475 239.812 45.5475C243.574 45.5475 246.395 46.4886 248.339 48.3707C250.282 50.2529 251.223 52.7624 251.223 55.962V71.8346C251.223 76.1008 250.282 79.2377 248.401 81.308C246.52 83.3156 243.699 84.3821 239.937 84.3821C236.05 84.3821 233.166 83.4411 231.285 81.4962C229.404 79.6768 228.464 76.6027 228.464 72.2738Z" fill="#008549"/>
    <path d="M256.05 83.6293V46.3632H263.135V62.4867L271.724 46.3632H279.687L270.282 62.4867L280 83.6293H272.1L265.956 68.7605L263.135 72.462V83.6293H256.05Z" fill="#008549"/>
    <path d="M23.3856 27.8555C22.7586 25.5342 20.627 23.7776 18.0564 23.7776C14.9843 23.7776 12.5392 26.2244 12.5392 29.2985C12.5392 32.3726 14.9843 34.8194 18.0564 34.8194C20.627 34.8194 22.6959 33.0628 23.3856 30.7415H37.116C37.3668 29.7377 37.6803 28.7339 37.9937 27.7928H23.3856V27.8555Z" fill="#83C7BA"/>
    <path d="M14.9216 43.9164C14.5455 41.2187 12.2884 39.1483 9.46709 39.1483C6.39499 39.1483 3.94984 41.5951 3.94984 44.6692C3.94984 47.7434 6.39499 50.1901 9.46709 50.1901C11.7241 50.1901 13.7304 48.8099 14.5455 46.8023H34.7962C34.8589 45.7985 34.8589 44.8574 34.9843 43.8536H14.9216V43.9164Z" fill="#83C7BA"/>
    <path d="M24.4514 53.2643C23.8245 50.943 21.6928 49.1863 19.1223 49.1863C16.0502 49.1863 13.605 51.6331 13.605 54.7073C13.605 57.7814 16.0502 60.2282 19.1223 60.2282C21.6928 60.2282 23.7618 58.4715 24.4514 56.1502H35.047C34.9843 55.2092 34.9216 54.2053 34.8589 53.2015H24.4514V53.2643Z" fill="#83C7BA"/>
    <path d="M10.8464 63.616C10.2194 61.2947 8.08777 59.538 5.51724 59.538C2.44514 59.538 0 61.9848 0 65.0589C0 68.1331 2.44514 70.5798 5.51724 70.5798C8.08777 70.5798 10.1567 68.8232 10.8464 66.5019H36.6771C36.4263 65.5608 36.2382 64.557 36.0502 63.5532H10.8464V63.616Z" fill="#83C7BA"/>
    <path d="M30.6583 81.3707C30.0313 79.0494 27.8997 77.2928 25.3292 77.2928C22.2571 77.2928 19.8119 79.7396 19.8119 82.8137C19.8119 85.8878 22.2571 88.3346 25.3292 88.3346C27.8997 88.3346 29.9687 86.578 30.6583 84.2567H44.0125C43.3856 83.3156 42.8213 82.3118 42.2571 81.308H30.6583V81.3707Z" fill="#83C7BA"/>
    <path d="M21.6928 71.5837C21.0658 69.2624 18.9342 67.5057 16.3636 67.5057C13.2915 67.5057 10.8464 69.9525 10.8464 73.0267C10.8464 76.1008 13.2915 78.5476 16.3636 78.5476C18.9342 78.5476 21.0031 76.7909 21.6928 74.4696H38.8715C38.8715 74.4696 38.4953 72.7757 38.1191 71.5209H21.6928V71.5837Z" fill="#83C7BA"/>
    <path d="M66.2069 76.9163C64.0752 74.7205 61.9436 72.5874 59.8119 70.5171C55.5486 66.2509 51.2226 62.0475 46.9593 57.7186C42.3825 53.076 39.7492 47.4924 39.2477 40.9677C38.6207 32.3099 41.442 24.9696 47.5862 18.884C53.605 12.924 59.5611 6.96388 65.5172 0.941065C65.7053 0.752852 65.8307 0.439163 66.1442 0C67.7743 1.69392 69.2163 3.19962 70.6583 4.70532C75.9248 9.97528 81.2539 15.2452 86.395 20.5779C89.8433 24.154 91.8495 28.4829 92.7273 33.3137C94.232 41.9087 92.3511 49.7509 86.5204 56.3384C83.5737 59.7262 80.2508 62.8004 77.116 65.9373C73.6677 69.3878 70.2194 72.9011 66.7712 76.3517C66.6458 76.5399 66.4577 76.6654 66.2069 76.9163ZM77.116 22.2091C76.7398 22.5228 76.5517 22.711 76.3636 22.8992C70.1567 29.1103 63.9498 35.384 57.7429 41.5951C55.4232 43.9163 53.0408 46.3004 50.721 48.6217C50.4702 48.8726 50.2821 49.4373 50.4075 49.6255C51.7241 51.6958 53.5423 53.2015 55.1724 54.8327C64.2006 45.7985 73.1661 36.827 82.2571 27.73C80.627 25.9106 78.9342 24.0913 77.116 22.2091ZM66.0815 65.9373C66.4577 65.6236 66.6458 65.4981 66.7712 65.3726C70.9718 61.1692 75.1097 56.9658 79.3103 52.7624C83.5737 48.4962 85.7053 43.4144 85.3918 37.3916C85.3918 36.9525 85.2665 36.576 85.2038 36.0114C84.8276 36.3251 84.6395 36.5133 84.4514 36.7015C80.3762 40.7795 76.3009 44.8574 72.163 48.9354C68.5266 52.5741 64.8903 56.2129 61.2539 59.8517C61.0031 60.1027 60.5016 60.3536 61.0031 60.8555C62.7586 62.4867 64.3887 64.1806 66.0815 65.9373ZM47.0219 40.9677C55.2351 32.749 63.3229 24.7186 71.2226 16.8137C69.5925 15.1198 67.837 13.3631 65.9561 11.4183C65.8307 11.6065 65.6426 11.9202 65.4545 12.1711C61.3166 16.3118 57.2414 20.4525 53.0408 24.5304C49.6552 27.8555 47.5862 31.7452 47.0846 36.4506C46.8966 37.9563 47.0219 39.462 47.0219 40.9677Z" fill="#009A59"/>
    <path d="M66.2069 99.0627C61.0658 93.9183 55.9875 88.8365 50.9718 83.7548C48.652 81.4335 46.2696 79.1122 44.2633 76.5399C41.1912 72.6502 39.5611 68.0704 39.3103 63.1141C39.185 60.981 39.4357 58.7852 39.4984 56.6521C39.4984 56.5266 39.5611 56.3384 39.5611 56.2129C39.5611 56.1502 39.6238 56.1502 39.7492 56.0875C40.0627 57.0913 40.3762 58.0951 40.6897 59.0989C42.1944 63.365 44.8276 66.8783 48.0251 70.0152C53.7931 75.7243 59.5611 81.4962 65.2665 87.2681C65.5172 87.519 65.8307 87.77 66.2696 88.2091C67.5862 86.8289 68.8401 85.5114 70.094 84.2567C75.1724 79.1749 80.1881 74.0932 85.2665 69.0114C88.652 65.6236 90.9718 61.6711 92.2884 57.0913C92.3511 56.7776 92.4765 56.4639 92.79 56.1502C92.9154 56.8403 93.0408 57.4677 93.1034 58.1578C93.7304 66.6274 91.2226 74.0304 85.2038 80.116C79.1223 86.2643 72.9781 92.4126 66.8966 98.4981C66.6458 98.6236 66.4577 98.8118 66.2069 99.0627Z" fill="#009A59"/>
    <path d="M108.652 25.346L104.201 20.7034V25.346H102.759V15.6216H104.201V20.2642L108.464 15.6216H109.342V16.5L105.768 20.327L109.655 24.3422V25.346H108.652Z" fill="#008549"/>
    <path d="M115.925 19.6996L111.097 28.6084H110.219V27.6673L112.163 24.2795L109.655 19.7624V18.884H110.533L112.79 23.0875L115.047 18.884H115.862V19.6996H115.925Z" fill="#008549"/>
    <path d="M120.251 25.4715C119.185 25.4715 118.37 25.1578 117.806 24.4677C117.241 23.7776 116.928 22.7738 116.928 21.519V20.3897C116.928 19.6996 116.991 19.135 117.053 18.6331C117.179 18.1312 117.304 17.692 117.555 17.2528C117.806 16.8137 118.182 16.5 118.621 16.249C119.06 15.9981 119.687 15.8099 120.376 15.7471L121.129 15.6844C121.567 15.6217 121.881 15.5589 122.006 15.3707L122.194 15.1825H123.009V15.9981C122.884 16.249 122.633 16.3745 122.382 16.5C122.132 16.6255 121.693 16.6882 121.129 16.7509L120.251 16.8764C119.31 17.0019 118.683 17.3156 118.37 17.8175C118.056 18.3194 117.868 19.135 117.868 20.2642C118.056 19.8251 118.37 19.4487 118.746 19.135C119.185 18.884 119.687 18.6958 120.188 18.6958C121.129 18.6958 121.881 19.0095 122.445 19.6996C123.009 20.327 123.323 21.1426 123.323 22.0836C123.323 23.0247 123.009 23.8403 122.445 24.4677C121.881 25.095 121.254 25.4715 120.251 25.4715ZM118.746 23.7148C119.122 24.154 119.561 24.3422 120.188 24.3422C120.815 24.3422 121.317 24.154 121.63 23.7148C122.006 23.2757 122.132 22.711 122.132 22.0836C122.132 21.4563 121.944 20.8916 121.63 20.4525C121.254 20.0133 120.815 19.8251 120.188 19.8251C119.561 19.8251 119.06 20.0133 118.683 20.4525C118.307 20.8916 118.182 21.3935 118.182 22.0836C118.245 22.7737 118.433 23.2757 118.746 23.7148Z" fill="#008549"/>
    <path d="M126.771 25.4715C126.081 25.4715 125.517 25.2833 125.141 24.9068C124.765 24.5304 124.577 24.0285 124.577 23.4639C124.577 22.8992 124.765 22.3973 125.204 22.0836C125.643 21.7072 126.27 21.5817 127.147 21.5817C127.398 21.5817 127.649 21.5817 127.9 21.6445C128.15 21.7072 128.339 21.7072 128.464 21.7072L128.652 21.77V21.3935C128.652 20.3897 128.213 19.8878 127.273 19.8878C126.959 19.8878 126.646 19.9506 126.458 20.076C126.207 20.2015 126.081 20.327 125.956 20.4525L125.831 20.6407H125.016V19.8251L125.078 19.7624C125.078 19.6996 125.141 19.6996 125.204 19.6369C125.266 19.5741 125.329 19.5114 125.392 19.4487C125.455 19.3859 125.58 19.3232 125.705 19.1977C125.831 19.135 125.956 19.0722 126.144 19.0095C126.27 18.9468 126.458 18.884 126.708 18.884C126.897 18.8213 127.147 18.8213 127.398 18.8213C128.276 18.8213 128.903 19.0722 129.404 19.5114C129.843 19.9506 130.094 20.5779 130.094 21.4563V25.4715H129.028L128.903 24.5304C128.715 24.7814 128.464 25.0323 128.15 25.2205C127.774 25.346 127.335 25.4715 126.771 25.4715ZM127.022 24.4049C127.524 24.4049 127.962 24.2795 128.276 23.9658C128.589 23.6521 128.777 23.3384 128.777 23.0247V22.711C128.401 22.5855 127.9 22.5228 127.273 22.5228C126.771 22.5228 126.458 22.5855 126.27 22.7738C126.081 22.962 125.956 23.1502 125.956 23.4639C125.893 24.0913 126.27 24.4049 127.022 24.4049Z" fill="#008549"/>
    <path d="M133.166 25.346H131.85V18.884H133.166V21.4563H136.301V18.884H137.618V25.346H136.301V22.5228H133.166V25.346Z" fill="#008549"/>
    <path d="M142.382 25.4715C141.317 25.4715 140.502 25.1578 139.937 24.5304C139.373 23.903 139.06 23.0874 139.06 22.0836C139.06 21.1426 139.373 20.327 139.937 19.6996C140.564 19.0722 141.317 18.6958 142.32 18.6958C142.508 18.6958 142.759 18.6958 142.947 18.7585C143.135 18.7585 143.323 18.8213 143.448 18.884C143.574 18.9468 143.762 19.0095 143.887 19.0722C144.013 19.135 144.138 19.1977 144.201 19.2604C144.263 19.3232 144.389 19.3859 144.451 19.4487C144.514 19.5114 144.577 19.5741 144.639 19.6369C144.702 19.6996 144.702 19.7623 144.765 19.8251C144.828 19.8878 144.828 19.8878 144.828 19.9506V20.0133V20.7661H144.013C144.013 20.7661 144.013 20.7034 143.95 20.7034C143.95 20.6407 143.887 20.6407 143.887 20.5779C143.887 20.5152 143.824 20.4525 143.762 20.4525C143.699 20.3897 143.636 20.327 143.636 20.327C143.574 20.2642 143.511 20.2015 143.448 20.2015C143.386 20.1388 143.26 20.1388 143.197 20.076C143.072 20.0133 143.009 20.0133 142.884 20.0133C142.759 20.0133 142.633 19.9506 142.445 19.9506C141.818 19.9506 141.317 20.1388 140.94 20.5779C140.627 21.0171 140.439 21.519 140.439 22.2091C140.439 22.8992 140.627 23.4011 140.94 23.8403C141.254 24.2795 141.755 24.4677 142.445 24.4677C142.696 24.4677 142.947 24.4049 143.135 24.3422C143.323 24.2795 143.511 24.2167 143.636 24.0912C143.762 24.0285 143.824 23.903 143.887 23.8403C143.95 23.7148 144.013 23.6521 144.013 23.5893C144.013 23.5266 144.075 23.5266 144.075 23.4639H144.89V24.2794C144.89 24.2794 144.89 24.3422 144.828 24.4049C144.765 24.4677 144.702 24.5931 144.577 24.7186C144.451 24.8441 144.326 24.9696 144.138 25.095C143.95 25.2205 143.699 25.2833 143.386 25.4087C143.072 25.4715 142.759 25.4715 142.382 25.4715Z" fill="#008549"/>
    <path d="M147.712 25.346H146.395V18.884H147.712V21.8327L150.658 18.884H151.473V19.6996L149.154 21.9582L151.661 24.4677V25.346H150.784L147.712 22.2091V25.346Z" fill="#008549"/>
    <path d="M154.295 25.346H153.103V18.884H154.42V23.4639L157.806 18.884H158.997V25.346H157.68V20.7662L154.295 25.346Z" fill="#008549"/>
    <path d="M162.069 25.346H160.878V18.884H162.194V23.4639L165.58 18.884H166.771V25.346H165.455V20.7662L162.069 25.346ZM164.765 17.7548C164.514 17.8175 164.201 17.8802 163.887 17.8802C163.574 17.8802 163.26 17.8175 163.009 17.7548C162.759 17.692 162.571 17.5665 162.445 17.4411C162.32 17.3156 162.194 17.1901 162.132 17.1274C162.069 17.0019 162.006 16.9392 161.944 16.8137L161.881 16.6882V15.9354H162.884V15.9981C162.884 15.9981 162.884 16.0608 162.947 16.1236C162.947 16.1863 163.009 16.2491 163.009 16.3118C163.009 16.3745 163.072 16.4373 163.135 16.5C163.197 16.5627 163.26 16.6255 163.323 16.6882C163.386 16.751 163.448 16.751 163.574 16.8137C163.699 16.8137 163.762 16.8764 163.887 16.8764C164.138 16.8764 164.326 16.8137 164.514 16.6882C164.702 16.5627 164.765 16.4373 164.828 16.2491L164.89 16.0608H165.893V16.8137C165.893 16.8764 165.893 16.8764 165.831 16.9392C165.831 17.0019 165.768 17.0646 165.643 17.1901C165.517 17.3156 165.455 17.4411 165.329 17.5665C165.204 17.692 165.016 17.692 164.765 17.7548Z" fill="#008549"/>
    <path d="M173.229 25.346H171.912V18.884H176.301V20.0133H173.166V25.346H173.229Z" fill="#008549"/>
    <path d="M180.251 25.4715C179.248 25.4715 178.433 25.1578 177.868 24.4677C177.241 23.8403 176.991 23.0247 176.991 22.0836C176.991 21.1426 177.304 20.327 177.868 19.6996C178.495 19.0722 179.248 18.7585 180.251 18.7585C181.254 18.7585 182.069 19.0722 182.633 19.6996C183.26 20.327 183.511 21.1426 183.511 22.0836C183.511 23.0247 183.197 23.8403 182.633 24.4677C182.006 25.1578 181.254 25.4715 180.251 25.4715ZM178.746 23.7148C179.06 24.154 179.561 24.3422 180.251 24.3422C180.94 24.3422 181.379 24.154 181.755 23.7148C182.069 23.2757 182.257 22.711 182.257 22.0836C182.257 21.4563 182.069 20.8916 181.755 20.4525C181.379 20.0133 180.94 19.8251 180.251 19.8251C179.561 19.8251 179.122 20.0133 178.746 20.4525C178.37 20.8916 178.244 21.3935 178.244 22.0836C178.244 22.7738 178.433 23.3384 178.746 23.7148Z" fill="#008549"/>
    <path d="M187.962 25.4715C186.897 25.4715 186.081 25.1578 185.517 24.5304C184.953 23.903 184.639 23.0874 184.639 22.0836C184.639 21.1426 184.953 20.327 185.517 19.6996C186.144 19.0722 186.897 18.6958 187.9 18.6958C188.088 18.6958 188.339 18.6958 188.527 18.7585C188.715 18.7585 188.903 18.8213 189.028 18.884C189.154 18.9468 189.342 19.0095 189.467 19.0722C189.592 19.135 189.718 19.1977 189.781 19.2604C189.843 19.3232 189.969 19.3859 190.031 19.4487C190.094 19.5114 190.157 19.5741 190.219 19.6369C190.282 19.6996 190.282 19.7623 190.345 19.8251C190.408 19.8878 190.408 19.8878 190.408 19.9506V20.0133V20.7661H189.592C189.592 20.7661 189.592 20.7034 189.53 20.7034C189.53 20.6407 189.467 20.6407 189.467 20.5779C189.467 20.5152 189.404 20.4525 189.342 20.4525C189.279 20.3897 189.216 20.327 189.216 20.327C189.154 20.2642 189.091 20.2015 189.028 20.2015C188.966 20.1388 188.84 20.1388 188.777 20.076C188.652 20.0133 188.589 20.0133 188.464 20.0133C188.339 20.0133 188.213 19.9506 188.025 19.9506C187.398 19.9506 186.897 20.1388 186.52 20.5779C186.207 21.0171 186.019 21.519 186.019 22.2091C186.019 22.8992 186.207 23.4011 186.52 23.8403C186.834 24.2795 187.335 24.4677 188.025 24.4677C188.276 24.4677 188.527 24.4049 188.715 24.3422C188.903 24.2795 189.091 24.2167 189.216 24.0912C189.342 24.0285 189.404 23.903 189.467 23.8403C189.53 23.7148 189.592 23.6521 189.592 23.5893C189.592 23.5266 189.655 23.5266 189.655 23.4639H190.47V24.2794C190.47 24.2794 190.47 24.3422 190.408 24.4049C190.345 24.4677 190.282 24.5931 190.157 24.7186C190.031 24.8441 189.906 24.9696 189.718 25.095C189.53 25.2205 189.279 25.2833 188.966 25.4087C188.652 25.4715 188.339 25.4715 187.962 25.4715Z" fill="#008549"/>
    <path d="M197.618 19.6996L192.79 28.6084H191.85V27.6673L193.793 24.2795L191.285 19.7624V18.884H192.163L194.42 23.0875L196.677 18.884H197.492V19.6996H197.618Z" fill="#008549"/>
    <path d="M198.809 27.1654H197.618V24.2795H198.307C198.621 24.0285 198.871 23.2757 198.934 21.9582L199.185 18.8213H204.013V24.2795H205.078V27.1654H203.887V25.346H198.809V27.1654ZM199.624 24.3422H202.696V19.9506H200.251L200.063 22.2719C200.063 23.1502 199.875 23.8403 199.624 24.3422Z" fill="#008549"/>
    <path d="M208.15 25.4715C207.461 25.4715 206.897 25.2833 206.52 24.9068C206.144 24.5304 205.956 24.0285 205.956 23.4639C205.956 22.8992 206.144 22.3973 206.583 22.0836C207.022 21.7072 207.649 21.5817 208.527 21.5817C208.777 21.5817 209.028 21.5817 209.279 21.6445C209.53 21.7072 209.718 21.7072 209.843 21.7072L210.031 21.77V21.3935C210.031 20.3897 209.592 19.8878 208.652 19.8878C208.339 19.8878 208.025 19.9506 207.837 20.076C207.586 20.2015 207.461 20.327 207.335 20.4525L207.21 20.6407H206.395V19.8251L206.458 19.7624C206.458 19.6996 206.52 19.6996 206.583 19.6369C206.646 19.5741 206.708 19.5114 206.771 19.4487C206.834 19.3859 206.959 19.3232 207.085 19.1977C207.21 19.135 207.335 19.0722 207.524 19.0095C207.649 18.9468 207.837 18.884 208.088 18.884C208.276 18.8213 208.527 18.8213 208.777 18.8213C209.655 18.8213 210.282 19.0722 210.784 19.5114C211.223 19.9506 211.473 20.5779 211.473 21.4563V25.4715H210.408L210.282 24.5304C210.094 24.7814 209.843 25.0323 209.53 25.2205C209.091 25.346 208.652 25.4715 208.15 25.4715ZM208.339 24.4049C208.84 24.4049 209.279 24.2795 209.592 23.9658C209.906 23.6521 210.094 23.3384 210.094 23.0247V22.711C209.718 22.5855 209.216 22.5228 208.589 22.5228C208.088 22.5228 207.774 22.5855 207.586 22.7738C207.398 22.962 207.273 23.1502 207.273 23.4639C207.21 24.0913 207.586 24.4049 208.339 24.4049Z" fill="#008549"/>
    <path d="M214.483 28.6084H213.166V18.884H214.357L214.483 19.8878C214.984 19.135 215.737 18.7585 216.74 18.7585C217.68 18.7585 218.433 19.0722 218.934 19.6996C219.498 20.327 219.749 21.1426 219.749 22.0836C219.749 23.0247 219.498 23.8403 218.934 24.4677C218.37 25.095 217.618 25.4715 216.74 25.4715C215.737 25.4715 214.984 25.095 214.483 24.3422V28.6084ZM216.489 24.4049C217.116 24.4049 217.618 24.2167 217.994 23.7776C218.307 23.3384 218.495 22.7738 218.495 22.1464C218.495 21.519 218.307 20.9544 217.994 20.5152C217.68 20.076 217.179 19.8878 216.489 19.8878C215.862 19.8878 215.423 20.076 215.047 20.5152C214.671 20.9544 214.483 21.4563 214.483 22.1464C214.483 22.7738 214.671 23.3384 215.047 23.7776C215.423 24.154 215.862 24.4049 216.489 24.4049Z" fill="#008549"/>
    <path d="M224.201 25.4715C223.135 25.4715 222.32 25.1578 221.755 24.5304C221.191 23.903 220.878 23.0874 220.878 22.0836C220.878 21.1426 221.191 20.327 221.755 19.6996C222.382 19.0722 223.135 18.6958 224.138 18.6958C224.326 18.6958 224.577 18.6958 224.765 18.7585C224.953 18.7585 225.141 18.8213 225.266 18.884C225.392 18.9468 225.58 19.0095 225.705 19.0722C225.831 19.135 225.956 19.1977 226.019 19.2604C226.081 19.3232 226.207 19.3859 226.27 19.4487C226.332 19.5114 226.395 19.5741 226.458 19.6369C226.52 19.6996 226.52 19.7623 226.583 19.8251C226.646 19.8878 226.646 19.8878 226.646 19.9506V20.0133V20.7661H225.831C225.831 20.7661 225.831 20.7034 225.768 20.7034C225.768 20.6407 225.705 20.6407 225.705 20.5779C225.705 20.5152 225.643 20.4525 225.58 20.4525C225.517 20.3897 225.455 20.327 225.455 20.327C225.455 20.327 225.329 20.2015 225.266 20.2015C225.204 20.1388 225.078 20.1388 225.016 20.076C224.89 20.0133 224.828 20.0133 224.702 20.0133C224.577 20.0133 224.451 19.9506 224.263 19.9506C223.636 19.9506 223.135 20.1388 222.759 20.5779C222.445 21.0171 222.257 21.519 222.257 22.2091C222.257 22.8992 222.445 23.4011 222.759 23.8403C223.072 24.2795 223.574 24.4677 224.263 24.4677C224.514 24.4677 224.765 24.4049 224.953 24.3422C225.141 24.2795 225.329 24.2167 225.455 24.0912C225.58 24.0285 225.643 23.903 225.705 23.8403C225.768 23.7148 225.831 23.6521 225.831 23.5893C225.831 23.5266 225.893 23.5266 225.893 23.4639H226.708V24.2794C226.708 24.2794 226.708 24.3422 226.646 24.4049C226.583 24.4677 226.52 24.5931 226.395 24.7186C226.27 24.8441 226.144 24.9696 225.956 25.095C225.768 25.2205 225.517 25.2833 225.204 25.4087C224.953 25.4715 224.577 25.4715 224.201 25.4715Z" fill="#008549"/>
    <path d="M230.909 25.346H229.592V19.9506H227.523V18.884H232.978V20.0133H230.909V25.346Z" fill="#008549"/>
    <path d="M237.241 25.346H234.232V18.884H237.116C237.806 18.884 238.37 19.0095 238.809 19.3232C239.248 19.6369 239.436 20.0133 239.436 20.578C239.436 21.2053 239.122 21.7072 238.433 21.9582C238.809 22.0837 239.122 22.2719 239.31 22.5228C239.498 22.7738 239.624 23.0875 239.624 23.4639C239.624 24.0913 239.373 24.5932 238.934 24.9068C238.495 25.2205 237.931 25.346 237.241 25.346ZM235.486 19.8878V21.4563H237.053C237.68 21.4563 237.994 21.2053 237.994 20.6407C237.994 20.1388 237.68 19.8878 237.053 19.8878H235.486ZM235.486 22.5228V24.3422H237.116C237.868 24.3422 238.307 24.0285 238.307 23.4639C238.307 22.8365 237.931 22.5228 237.116 22.5228H235.486Z" fill="#008549"/>
    <path d="M244.138 25.4715C243.072 25.4715 242.257 25.1578 241.63 24.5304C241.066 23.903 240.752 23.0874 240.752 22.0836C240.752 21.1426 241.066 20.327 241.63 19.6996C242.194 19.0722 243.009 18.7585 244.013 18.7585C245.016 18.7585 245.768 19.0095 246.27 19.5114C246.771 20.0133 247.022 20.7034 247.022 21.5817L246.959 22.2719H242.132C242.194 22.8992 242.382 23.4011 242.696 23.7776C243.072 24.154 243.574 24.3422 244.201 24.3422C244.451 24.3422 244.702 24.3422 244.953 24.2795C245.204 24.2167 245.329 24.154 245.455 24.0912C245.58 24.0285 245.705 23.9658 245.768 23.8403C245.831 23.7776 245.893 23.7148 245.956 23.6521L246.019 23.5893H246.834V24.4049C246.52 24.8441 246.019 25.1578 245.266 25.346C244.953 25.4715 244.577 25.4715 244.138 25.4715ZM242.132 21.3308H245.705C245.705 20.8916 245.58 20.5152 245.266 20.2642C244.953 20.0133 244.577 19.8251 244.013 19.8251C242.947 19.8251 242.382 20.327 242.132 21.3308Z" fill="#008549"/>
    <path d="M249.781 25.346H248.464V18.884H249.781V21.4563H252.915V18.884H254.232V25.346H252.915V22.5228H249.781V25.346Z" fill="#008549"/>
    <path d="M257.429 25.346H256.113V18.884H257.429V21.4563H260.564V18.884H261.881V25.346H260.564V22.5228H257.429V25.346Z" fill="#008549"/>
    <path d="M266.332 25.346H263.762V18.884H265.078V21.0799H266.395C267.273 21.0799 267.9 21.2681 268.401 21.6445C268.84 22.0209 269.091 22.5228 269.091 23.1502C269.091 23.7776 268.84 24.3422 268.401 24.7186C267.9 25.1578 267.21 25.346 266.332 25.346ZM265.078 22.0837V24.2795H266.27C267.21 24.2795 267.649 23.903 267.649 23.1502C267.649 22.4601 267.21 22.0837 266.27 22.0837H265.078ZM271.285 25.346H269.969V18.884H271.285V25.346Z" fill="#008549"/>
    <path d="M274.42 25.346H273.229V18.884H274.545V23.4639L277.931 18.884H279.122V25.346H277.743V20.7662L274.42 25.346ZM277.116 17.7548C276.865 17.8175 276.552 17.8802 276.238 17.8802C275.925 17.8802 275.611 17.8175 275.36 17.7548C275.11 17.692 274.922 17.5665 274.796 17.4411C274.671 17.3156 274.545 17.1901 274.483 17.1274C274.42 17.0019 274.357 16.9392 274.295 16.8137L274.232 16.6882V15.9354H275.235V15.9981C275.235 15.9981 275.235 16.0608 275.298 16.1236C275.298 16.1863 275.36 16.2491 275.36 16.3118C275.36 16.3745 275.423 16.4373 275.486 16.5C275.549 16.5627 275.611 16.6255 275.674 16.6882C275.737 16.751 275.799 16.751 275.925 16.8137C276.05 16.8137 276.113 16.8764 276.238 16.8764C276.489 16.8764 276.677 16.8137 276.865 16.6882C277.053 16.5627 277.116 16.4373 277.179 16.2491L277.241 16.0608H278.244V16.8137C278.244 16.8764 278.245 16.8764 278.182 16.9392C278.182 17.0019 278.119 17.0646 277.994 17.1901C277.868 17.3156 277.806 17.4411 277.68 17.5665C277.555 17.6293 277.367 17.692 277.116 17.7548Z" fill="#008549"/>
    <path d="M104.201 36.9524C103.511 36.9524 102.947 36.7642 102.571 36.3878C102.194 36.0114 102.006 35.5095 102.006 34.9448C102.006 34.3802 102.194 33.8783 102.633 33.5646C103.072 33.1882 103.699 33.0627 104.577 33.0627C104.828 33.0627 105.078 33.0627 105.329 33.1254C105.58 33.1882 105.768 33.1882 105.893 33.1882L106.081 33.2509V32.8745C106.081 31.8707 105.643 31.3688 104.702 31.3688C104.389 31.3688 104.075 31.4315 103.887 31.557C103.636 31.6825 103.511 31.8079 103.386 31.9334L103.26 32.1216H102.445V31.306L102.508 31.2433C102.508 31.1806 102.571 31.1806 102.633 31.1178C102.696 31.0551 102.759 30.9924 102.821 30.9296C102.884 30.8669 103.009 30.8041 103.135 30.6787C103.26 30.6159 103.386 30.5532 103.574 30.4905C103.762 30.4277 103.887 30.365 104.138 30.365C104.326 30.3022 104.577 30.3022 104.828 30.3022C105.705 30.3022 106.332 30.5532 106.834 30.9924C107.273 31.4315 107.523 32.0589 107.523 32.9372V36.9524H106.458L106.332 36.0114C106.144 36.2623 105.893 36.5133 105.58 36.7015C105.141 36.827 104.702 36.9524 104.201 36.9524ZM104.389 35.8859C104.89 35.8859 105.329 35.7604 105.643 35.4467C105.956 35.133 106.144 34.8194 106.144 34.5057V34.192C105.768 34.0665 105.266 34.0038 104.639 34.0038C104.138 34.0038 103.824 34.0665 103.636 34.2547C103.448 34.4429 103.323 34.6311 103.323 34.9448C103.26 35.5722 103.636 35.8859 104.389 35.8859Z" fill="#008549"/>
    <path d="M110.533 36.827H109.216V30.365H113.605V31.4315H110.47V36.827H110.533Z" fill="#008549"/>
    <path d="M116.176 40.0893H114.859V30.365H116.05L116.176 31.3688C116.677 30.6159 117.429 30.2395 118.433 30.2395C119.373 30.2395 120.125 30.5532 120.627 31.1806C121.191 31.8079 121.442 32.6235 121.442 33.5646C121.442 34.5057 121.191 35.3213 120.627 35.9486C120.063 36.576 119.31 36.9524 118.433 36.9524C117.429 36.9524 116.677 36.576 116.176 35.8232V40.0893ZM118.182 35.8859C118.809 35.8859 119.31 35.6977 119.687 35.2585C120 34.8193 120.188 34.2547 120.188 33.6273C120.188 33 120 32.4353 119.687 31.9962C119.373 31.557 118.871 31.3688 118.182 31.3688C117.555 31.3688 117.116 31.557 116.74 31.9962C116.364 32.4353 116.176 32.9372 116.176 33.6273C116.176 34.2547 116.364 34.8193 116.74 35.2585C117.053 35.6349 117.555 35.8859 118.182 35.8859Z" fill="#008549"/>
    <path d="M124.702 36.9524C124.013 36.9524 123.448 36.7642 123.072 36.3878C122.696 36.0114 122.508 35.5095 122.508 34.9448C122.508 34.3802 122.696 33.8783 123.135 33.5646C123.574 33.1882 124.201 33.0627 125.078 33.0627C125.329 33.0627 125.58 33.0627 125.831 33.1254C126.081 33.1882 126.27 33.1882 126.395 33.1882L126.583 33.2509V32.8745C126.583 31.8707 126.144 31.3688 125.204 31.3688C124.89 31.3688 124.577 31.4315 124.389 31.557C124.138 31.6825 124.013 31.8079 123.887 31.9334L123.762 32.1216H122.947V31.306L123.009 31.2433C123.009 31.1806 123.072 31.1806 123.135 31.1178C123.197 31.0551 123.26 30.9924 123.323 30.9296C123.386 30.8669 123.511 30.8041 123.636 30.6787C123.762 30.6159 123.887 30.5532 124.075 30.4905C124.263 30.4277 124.389 30.365 124.639 30.365C124.828 30.3022 125.078 30.3022 125.329 30.3022C126.207 30.3022 126.834 30.5532 127.335 30.9924C127.774 31.4315 128.025 32.0589 128.025 32.9372V36.9524H126.959L126.834 36.0114C126.646 36.2623 126.395 36.5133 126.082 36.7015C125.705 36.827 125.266 36.9524 124.702 36.9524ZM124.953 35.8859C125.455 35.8859 125.893 35.7604 126.207 35.4467C126.52 35.133 126.708 34.8194 126.708 34.5057V34.192C126.332 34.0665 125.831 34.0038 125.204 34.0038C124.702 34.0038 124.389 34.0665 124.201 34.2547C124.013 34.4429 123.887 34.6311 123.887 34.9448C123.824 35.5722 124.201 35.8859 124.953 35.8859Z" fill="#008549"/>
    <path d="M131.097 40.0893H129.781V30.365H130.972L131.097 31.3688C131.599 30.6159 132.351 30.2395 133.354 30.2395C134.295 30.2395 135.047 30.5532 135.549 31.1806C136.113 31.8079 136.364 32.6235 136.364 33.5646C136.364 34.5057 136.113 35.3213 135.549 35.9486C134.984 36.576 134.232 36.9524 133.354 36.9524C132.351 36.9524 131.599 36.576 131.097 35.8232V40.0893ZM133.103 35.8859C133.73 35.8859 134.232 35.6977 134.608 35.2585C134.922 34.8193 135.11 34.2547 135.11 33.6273C135.11 33 134.922 32.4353 134.608 31.9962C134.295 31.557 133.793 31.3688 133.103 31.3688C132.476 31.3688 132.038 31.557 131.661 31.9962C131.285 32.4353 131.097 32.9372 131.097 33.6273C131.097 34.2547 131.285 34.8193 131.661 35.2585C131.975 35.6349 132.476 35.8859 133.103 35.8859Z" fill="#008549"/>
    <path d="M139.185 36.827H137.931V30.365H139.248V32.9372H142.382V30.365H143.699V36.827H142.32V34.0038H139.185V36.827Z" fill="#008549"/>
    <path d="M148.15 36.827H145.58V30.365H146.897V32.5608H148.213C149.091 32.5608 149.718 32.749 150.219 33.1254C150.658 33.5019 150.909 34.0038 150.909 34.6311C150.909 35.2585 150.658 35.8232 150.219 36.1996C149.655 36.6388 148.966 36.827 148.15 36.827ZM146.834 33.5646V35.8232H148.025C148.966 35.8232 149.404 35.4467 149.404 34.6939C149.404 34.0038 148.966 33.6273 148.025 33.6273H146.834V33.5646ZM153.041 36.827H151.724V30.365H153.041V36.827Z" fill="#008549"/>
    <path d="M156.176 36.827H154.984V30.365H156.301V34.9448L159.687 30.365H160.878V36.827H159.561V32.2471L156.176 36.827ZM158.871 29.2357C158.621 29.2985 158.307 29.3612 157.994 29.3612C157.68 29.3612 157.367 29.2985 157.116 29.2357C156.865 29.173 156.677 29.0475 156.552 28.922C156.426 28.7965 156.301 28.6711 156.238 28.6083C156.176 28.4829 156.113 28.4201 156.05 28.2946L155.987 28.1692V27.4163H156.991V27.4791C156.991 27.4791 156.991 27.5418 157.053 27.6045C157.116 27.6673 157.116 27.73 157.116 27.7927C157.116 27.8555 157.179 27.9182 157.241 27.981C157.304 28.0437 157.367 28.1064 157.429 28.1692C157.492 28.2319 157.555 28.2319 157.68 28.2946C157.806 28.2946 157.868 28.3574 157.994 28.3574C158.245 28.3574 158.433 28.2946 158.621 28.1692C158.809 28.0437 158.871 27.9182 158.934 27.73L158.997 27.5418H160V28.2946C160 28.3574 160 28.3574 159.937 28.4201C159.937 28.4829 159.875 28.5456 159.749 28.6711C159.624 28.7965 159.561 28.922 159.436 29.0475C159.31 29.1102 159.122 29.173 158.871 29.2357Z" fill="#008549"/>
    <path d="M171.411 31.1806L166.583 40.0893H165.705V39.211L167.649 35.8232L165.141 31.3061V30.4277H166.019L168.276 34.6312L170.533 30.4277H171.348V31.1806H171.411Z" fill="#008549"/>
    <path d="M173.918 36.827H172.602V30.365H173.918V32.9372H177.053V30.365H178.37V36.827H177.053V34.0038H173.918V36.827Z" fill="#008549"/>
    <path d="M181.379 36.827H180.188V30.365H181.505V34.9448L184.89 30.365H186.081V36.827H184.765V32.2471L181.379 36.827Z" fill="#008549"/>
    <path d="M191.034 36.827H188.025V30.365H190.909C191.599 30.365 192.163 30.4905 192.602 30.8042C193.041 31.1178 193.229 31.4943 193.229 32.0589C193.229 32.6863 192.915 33.1882 192.226 33.4391C192.602 33.5646 192.915 33.7528 193.103 34.0038C193.292 34.2547 193.417 34.5684 193.417 34.9448C193.417 35.5722 193.166 36.0741 192.727 36.3878C192.288 36.7015 191.787 36.827 191.034 36.827ZM189.279 31.3688V32.9372H190.846C191.473 32.9372 191.787 32.6863 191.787 32.1216C191.787 31.6197 191.473 31.3688 190.846 31.3688H189.279ZM189.279 34.0038V35.8232H190.909C191.661 35.8232 192.1 35.5095 192.1 34.9448C192.1 34.3175 191.724 34.0038 190.909 34.0038H189.279Z" fill="#008549"/>
    <path d="M197.931 36.9524C196.865 36.9524 196.05 36.6387 195.423 36.0114C194.859 35.384 194.545 34.5684 194.545 33.5646C194.545 32.6235 194.859 31.8079 195.423 31.1806C195.987 30.5532 196.803 30.2395 197.806 30.2395C198.809 30.2395 199.561 30.4905 200.063 30.9924C200.564 31.4943 200.815 32.1844 200.815 33.0627L200.752 33.7528H195.925C195.987 34.3802 196.176 34.8821 196.489 35.2585C196.865 35.6349 197.367 35.8232 197.994 35.8232C198.244 35.8232 198.495 35.8232 198.746 35.7604C198.997 35.6977 199.122 35.6349 199.248 35.5722C199.373 35.5095 199.498 35.4467 199.561 35.3213C199.624 35.2585 199.687 35.1958 199.749 35.133L199.812 35.0703H200.627V35.8859C200.313 36.3251 199.812 36.6387 199.06 36.827C198.746 36.9524 198.37 36.9524 197.931 36.9524ZM195.987 32.8117H199.561C199.561 32.3726 199.436 31.9962 199.122 31.7452C198.809 31.4943 198.433 31.306 197.868 31.306C196.803 31.306 196.176 31.8079 195.987 32.8117Z" fill="#008549"/>
    <path d="M203.636 40.0893H202.32V30.365H203.511L203.636 31.3688C204.138 30.6159 204.89 30.2395 205.893 30.2395C206.834 30.2395 207.586 30.5532 208.088 31.1806C208.652 31.8079 208.903 32.6235 208.903 33.5646C208.903 34.5057 208.652 35.3213 208.088 35.9486C207.524 36.576 206.771 36.9524 205.893 36.9524C204.89 36.9524 204.138 36.576 203.636 35.8232V40.0893ZM205.643 35.8859C206.27 35.8859 206.771 35.6977 207.147 35.2585C207.461 34.8193 207.649 34.2547 207.649 33.6273C207.649 33 207.461 32.4353 207.147 31.9962C206.834 31.557 206.332 31.3688 205.643 31.3688C205.016 31.3688 204.577 31.557 204.201 31.9962C203.824 32.4353 203.636 32.9372 203.636 33.6273C203.636 34.2547 203.824 34.8193 204.201 35.2585C204.514 35.6349 205.016 35.8859 205.643 35.8859Z" fill="#008549"/>
    <path d="M213.354 36.9525C212.288 36.9525 211.473 36.6388 210.909 36.0114C210.345 35.384 210.031 34.5685 210.031 33.5647C210.031 32.6236 210.345 31.808 210.909 31.1806C211.536 30.5532 212.288 30.1768 213.292 30.1768C213.48 30.1768 213.73 30.1768 213.918 30.2396C214.107 30.2396 214.295 30.3023 214.42 30.365C214.545 30.4278 214.734 30.4905 214.859 30.5532C214.984 30.616 215.11 30.6787 215.172 30.7415C215.235 30.8042 215.36 30.8669 215.423 30.9297C215.486 30.9924 215.549 31.0551 215.611 31.1179C215.674 31.1806 215.674 31.2434 215.737 31.3061C215.737 31.3688 215.799 31.3688 215.799 31.4316V31.4943V32.3099H214.984C214.984 32.3099 214.984 32.2472 214.922 32.2472C214.922 32.1844 214.859 32.1844 214.859 32.1217C214.859 32.0589 214.796 31.9962 214.734 31.9962C214.671 31.9335 214.608 31.8707 214.608 31.8707C214.545 31.808 214.483 31.7453 214.42 31.7453C214.357 31.6825 214.232 31.6825 214.169 31.6198C214.044 31.557 213.981 31.557 213.856 31.557C213.73 31.557 213.605 31.4943 213.417 31.4943C212.79 31.4943 212.288 31.6825 211.912 32.1217C211.599 32.5608 211.411 33.0628 211.411 33.7529C211.411 34.443 211.599 34.9449 211.912 35.384C212.226 35.8232 212.727 36.0114 213.417 36.0114C213.668 36.0114 213.918 35.9487 214.107 35.8859C214.295 35.8232 214.483 35.7605 214.608 35.635C214.734 35.5723 214.796 35.4468 214.859 35.384C214.922 35.2586 214.984 35.1958 214.984 35.1331C214.984 35.0704 215.047 35.0704 215.047 35.0076H215.862V35.8232C215.862 35.8232 215.862 35.8859 215.799 35.9487C215.737 36.0114 215.674 36.1369 215.549 36.2624C215.423 36.3878 215.298 36.5133 215.11 36.6388C214.922 36.7643 214.671 36.827 214.357 36.9525C214.044 36.9525 213.73 36.9525 213.354 36.9525Z" fill="#008549"/>
    <path d="M218.558 36.827H217.367V30.365H218.683V34.9448L222.069 30.365H223.26V36.827H221.944V32.2471L218.558 36.827Z" fill="#008549"/>
    <path d="M227.774 36.827H226.458V31.4315H224.451V30.3022H229.906V31.4315H227.837V36.827H227.774Z" fill="#008549"/>
    <path d="M233.856 36.9524C232.79 36.9524 231.975 36.6387 231.348 36.0114C230.784 35.384 230.47 34.5684 230.47 33.5646C230.47 32.6235 230.784 31.8079 231.348 31.1806C231.912 30.5532 232.727 30.2395 233.73 30.2395C234.734 30.2395 235.486 30.4905 235.987 30.9924C236.489 31.4943 236.74 32.1844 236.74 33.0627L236.677 33.7528H231.85C231.912 34.3802 232.1 34.8821 232.414 35.2585C232.79 35.6349 233.292 35.8232 233.918 35.8232C234.169 35.8232 234.42 35.8232 234.671 35.7604C234.922 35.6977 235.047 35.6349 235.172 35.5722C235.298 35.5095 235.423 35.4467 235.486 35.3213C235.549 35.2585 235.611 35.1958 235.674 35.133L235.737 35.0703H236.552V35.8859C236.238 36.3251 235.737 36.6387 234.984 36.827C234.671 36.9524 234.295 36.9524 233.856 36.9524ZM231.85 32.8117H235.423C235.423 32.3726 235.298 31.9962 234.984 31.7452C234.671 31.4943 234.295 31.306 233.73 31.306C232.665 31.306 232.1 31.8079 231.85 32.8117Z" fill="#008549"/>
    <path d="M240.752 36.827H239.436V31.4315H237.367V30.3022H242.821V31.4315H240.752V36.827Z" fill="#008549"/>
</svg>
